<svg xmlns="http://www.w3.org/2000/svg" xmlns:xlink="http://www.w3.org/1999/xlink" width="22" height="22" viewBox="0 0 22 22"><defs><path id="bwv4a" d="M1436 123v-22h22v22z"/><path id="bwv4b" d="M1453.375 114.48c-.447-.506-.972-.936-1.47-1.393-.448-.413-.477-.652-.116-1.128.393-.52.817-1.019 1.214-1.536.37-.483.75-.965.945-1.544.123-.368.014-.53-.387-.595-.069-.012-.14-.012-.21-.012l-2.376-.003c-.293-.004-.455.116-.558.361-.14.33-.284.66-.451.98-.377.722-.8 1.422-1.39 2.013-.13.13-.275.296-.493.228-.273-.094-.353-.517-.349-.66l-.002-2.585c-.052-.37-.14-.535-.528-.606h-2.469c-.33 0-.495.12-.67.315-.102.112-.133.185.076.222.41.073.64.323.702.71.098.619.09 1.24.035 1.86-.017.182-.05.363-.127.532-.12.267-.312.32-.565.157-.229-.149-.39-.357-.547-.568a12.26 12.26 0 0 1-1.45-2.532c-.111-.258-.303-.414-.593-.418a64.724 64.724 0 0 0-2.14 0c-.428.008-.556.204-.381.57.776 1.629 1.64 3.212 2.768 4.653.58.74 1.245 1.393 2.104 1.856.973.525 2.021.682 3.125.633.517-.022.673-.149.696-.635.017-.331.056-.662.23-.96.17-.293.43-.35.728-.167.149.092.274.207.393.33.29.3.571.61.874.899.378.363.827.578 1.39.534h2.185c.352-.021.534-.428.333-.798a3.956 3.956 0 0 0-.526-.714z"/></defs><g><g transform="translate(-1436 -101)"><use fill="#3185bd" xlink:href="#bwv4a"/></g><g transform="translate(-1436 -101)"><use fill="#fff" xlink:href="#bwv4b"/></g></g></svg>