<svg xmlns="http://www.w3.org/2000/svg" xmlns:xlink="http://www.w3.org/1999/xlink" width="22" height="22" viewBox="0 0 22 22"><defs><path id="zeaga" d="M1469 123v-22h22v22z"/><path id="zeagb" d="M1476.652 114.085c-.112-.093-.226-.183-.328-.287-.392-.403-.432-.863-.122-1.339.266-.406.713-.515 1.176-.282.09.046.176.102.258.163 1.672 1.225 3.968 1.26 5.646.055.167-.136.344-.247.55-.304.401-.11.774.048.989.422.246.427.242.844-.06 1.175a4.556 4.556 0 0 1-1.643 1.134c-.586.242-1.228.363-1.864.445.097.112.141.166.202.23.863.926 1.73 1.848 2.59 2.776.293.317.354.709.193 1.077-.177.402-.572.667-.959.638-.245-.018-.437-.148-.607-.331-.652-.7-1.315-1.386-1.953-2.099-.186-.208-.275-.169-.439.012-.655.72-1.321 1.429-1.991 2.133-.3.317-.659.374-1.007.193a1.096 1.096 0 0 1-.59-1.001c.013-.275.14-.485.317-.673.854-.91 1.705-1.823 2.558-2.735.056-.06.109-.125.19-.219-1.16-.13-2.209-.434-3.106-1.183zm.054-6.045c.012-2.241 1.713-4.047 3.806-4.04 2.098.006 3.781 1.837 3.771 4.101-.01 2.212-1.722 4.004-3.816 3.997-2.073-.007-3.773-1.842-3.761-4.058zm3.792-1.972c-1.039-.002-1.866.89-1.859 2.001.008 1.096.836 1.966 1.868 1.962 1.029-.004 1.847-.886 1.844-1.985-.004-1.1-.825-1.977-1.853-1.978z"/></defs><g><g transform="translate(-1469 -101)"><use fill="#f90" xlink:href="#zeaga"/></g><g transform="translate(-1469 -101)"><use fill="#fff" xlink:href="#zeagb"/></g></g></svg>